<svg width="28" height="28" viewBox="0 0 28 28" fill="none" xmlns="http://www.w3.org/2000/svg">
<path d="M18.9584 26.25C20.086 26.25 21.0001 25.3359 21.0001 24.2083C21.0001 23.0807 20.086 22.1666 18.9584 22.1666C17.8308 22.1666 16.9167 23.0807 16.9167 24.2083C16.9167 25.3359 17.8308 26.25 18.9584 26.25Z" fill="white"/>
<path d="M9.62492 26.25C10.7525 26.25 11.6666 25.3359 11.6666 24.2083C11.6666 23.0807 10.7525 22.1666 9.62492 22.1666C8.49734 22.1666 7.58325 23.0807 7.58325 24.2083C7.58325 25.3359 8.49734 26.25 9.62492 26.25Z" fill="white"/>
<path d="M5.64659 4.59671L5.41325 7.45504C5.36658 8.00337 5.79825 8.45837 6.34659 8.45837H24.2083C24.6983 8.45837 25.1066 8.08504 25.1416 7.59504C25.2933 5.53004 23.7183 3.85004 21.6533 3.85004H7.31492C7.19825 3.33671 6.96492 2.84671 6.60325 2.43837C6.01992 1.82004 5.20325 1.45837 4.36325 1.45837H2.33325C1.85492 1.45837 1.45825 1.85504 1.45825 2.33337C1.45825 2.81171 1.85492 3.20837 2.33325 3.20837H4.36325C4.72492 3.20837 5.06325 3.36004 5.30825 3.61671C5.55325 3.88504 5.66992 4.23504 5.64659 4.59671Z" fill="white"/>
<path d="M23.9282 10.2084H6.03157C5.54157 10.2084 5.1449 10.5817 5.09823 11.06L4.67823 16.135C4.5149 18.13 6.07823 19.8334 8.07323 19.8334H21.0466C22.7966 19.8334 24.3366 18.3984 24.4649 16.6484L24.8499 11.2C24.8966 10.6634 24.4766 10.2084 23.9282 10.2084Z" fill="white"/>
</svg>
